<?xml version="1.0" encoding="utf-8"?>
<!-- Generator: Adobe Illustrator 18.1.1, SVG Export Plug-In . SVG Version: 6.00 Build 0)  -->
<svg version="1.1" id="Layer_1" xmlns="http://www.w3.org/2000/svg" xmlns:xlink="http://www.w3.org/1999/xlink" x="0px" y="0px"
	 viewBox="0 0 792 612" enable-background="new 0 0 792 612" xml:space="preserve">
<path fill="#0081C6" d="M172,349.1l26.6-99.4h64c18.4,0,31.3,4.3,38.8,12.9c7.5,8.6,9.1,20.7,5,36.2c-2.6,9.9-7.3,18.9-14,27
	c-7.2,8.5-15.6,14.6-25.3,18.3c-8.9,3.3-21.2,5-37,5H172z M200,330.4h30c15.4,0,27-2.2,34.9-6.7c8.7-4.9,14.6-13.3,17.8-25.2
	c5.5-20.6-2.7-30.9-24.6-30.9h-41.2L200,330.4z"/>
<path fill="#0081C6" d="M517.9,267.6l-21.8,81.5h-23l21.8-81.5h-45.7l4.8-17.9h114.7l-4.8,17.9H517.9z"/>
<path fill="#0081C6" d="M423.1,293.2c-2.7-3.2-8.8-4.8-18.3-4.8h-62.1l5.7-21.2h86.8l4.7-17.5h-82.3c-9.5,0-16.4,1.6-20.7,4.8
	c-4.3,3.2-7.7,9.5-10.2,18.7l-2.9,11c-2.5,9.3-2.4,15.5,0.2,18.7c2.6,3.2,8.7,4.8,18.2,4.8h62.2l-6.1,22.6h-87.6l-5,18.6h83.2
	c9.4,0,16.3-1.6,20.6-4.8c4.3-3.2,7.7-9.4,10.2-18.7l3.7-13.7C425.9,302.7,425.8,296.4,423.1,293.2z"/>
<path fill="#003D79" d="M349.3,164.9c-61.6,0-115.4,29-143.8,72H231c26.2-31.1,69.5-51.5,118.4-51.5c48.9,0,92.2,20.4,118.4,51.5
	h25.4C464.8,193.9,410.9,164.9,349.3,164.9z M349.3,427.5c-55.5,0-103.9-26.3-128.1-64.8h-23.4c25.4,50.1,83.8,85.3,151.5,85.3
	c46,0,87.7-16.2,117.7-42.3h-34.8C408.7,419.4,380.2,427.5,349.3,427.5z"/>
<path fill="#003D79" d="M297.5,379.9c0,0.3,0,0.7,0,1.1c0,6.7-1.9,8-9.1,8.3c-1.9,0.1-3.7,0.1-5.6,0.1l-4.6-0.1
	c-6.2-0.1-10.9-0.3-11.5-7.8c-0.1-1.7-0.2-3.4-0.2-5.1c0-7,1.1-10.9,8.8-11.5c2.3-0.2,4.6-0.2,6.9-0.2c3,0,6.1,0,9.1,0.3
	c5,0.5,5.7,4.1,5.8,8.4h-7.1c0-2.4-1.3-2.7-3.4-2.8c-0.7,0-1.4,0-2.1,0h-2l-3.7,0c-4.8,0-4.8,1.8-4.8,6.3c0,4.9,0.3,6.2,5.5,6.4
	l2.9,0.1c1.3,0,2.5,0,3.8,0c2.5,0,4.1-0.2,4.1-3.5H297.5z"/>
<path fill="#003D79" d="M316.1,364.8l5.2-0.1l5.9,0c8.4,0,11.2,2,11.2,10.7v1.2c0,9.2-0.5,12.3-11.4,12.6l-5.5,0.1
	c-0.8,0-1.6,0-2.3,0c-1.7,0-3.3-0.1-5-0.2c-5.3-0.4-8.5-2.2-8.8-8c-0.1-1.5-0.1-3-0.1-4.5C305.3,367.2,306.4,364.9,316.1,364.8z
	 M312.7,377.7c0,4,0.3,5.5,4.6,5.7c1.3,0.1,2.6,0.1,3.9,0.1c1.3,0,2.5,0,3.8,0c3.4,0,5.7-0.1,5.8-4c0-1.1,0.1-2.2,0.1-3.3
	c0-1.5-0.1-3.7-1.1-4.7c-0.9-0.8-2.9-0.8-4.3-0.8c-2.4,0-4.9,0-7.3,0c-2.5,0.1-5-0.1-5.4,3.2c-0.1,0.9-0.1,1.9-0.1,2.8V377.7z"/>
<path fill="#003D79" d="M379.9,389.1h-11.7l-14.6-18.2v18.2h-6.9v-24.2h11.7L373,383v-18.1h6.9V389.1z"/>
<path fill="#003D79" d="M404.7,389.1h-7.4V371h-10.8v-6.1h28.9v6.1h-10.8V389.1z"/>
<path fill="#003D79" d="M422.1,364.9h22.5c5.7,0,8.1,1.8,8.1,7.6c0,1.7-0.1,3.5-1,5c-0.9,1.5-2.7,1.8-4.2,2.3
	c3.1,0.4,4.9,1.3,4.9,4.6v4.6h-7.5v-2.3c0-2.6-0.1-3.9-3.2-3.9h-12.3v6.2h-7.4V364.9z M440.5,377h0.9c3.4,0,3.7-0.7,3.7-3.4
	c0-1.3-0.1-2.3-1.5-2.6c-0.7-0.2-1.4-0.2-2.1-0.2h-0.6h-11.7v6.2H440.5z"/>
<path fill="#003D79" d="M471.6,364.8l5.2-0.1l5.9,0c8.4,0,11.2,2,11.2,10.7v1.2c0,9.2-0.5,12.3-11.4,12.6l-5.5,0.1
	c-0.8,0-1.6,0-2.3,0c-1.7,0-3.3-0.1-5-0.2c-5.3-0.4-8.5-2.2-8.8-8c-0.1-1.5-0.1-3-0.1-4.5C460.7,367.2,461.9,364.9,471.6,364.8z
	 M468.2,377.7c0,4,0.3,5.5,4.6,5.7c1.3,0.1,2.6,0.1,4,0.1c1.3,0,2.5,0,3.8,0c3.4,0,5.7-0.1,5.8-4c0-1.1,0.1-2.2,0.1-3.3
	c0-1.5-0.1-3.7-1.1-4.7c-0.9-0.8-2.9-0.8-4.3-0.8c-2.4,0-4.9,0-7.3,0c-2.5,0.1-5-0.1-5.4,3.2c-0.1,0.9-0.1,1.9-0.1,2.8V377.7z"/>
<path fill="#003D79" d="M554.5,374.2c-1.6,0-3.2,0-4.9,0l-4.9-0.1c-1.7-0.1-4.2,0.2-4.2-2.2c0-1.5,1.4-1.7,2.7-1.8
	c1.9-0.1,3.7-0.2,5.6-0.2c0.8,0,8.5,0,13.9,0v-5.3l-14.3-0.1c-2.8,0-8.3,0-10.8,0.7c-3.8,1-4.5,3.4-4.5,7c0,4.5,1.4,6.7,6.2,7
	c4,0.3,8.1,0.3,12.1,0.3h1.2c1.6,0,3.4,0.2,3.4,2.1c0,2.1-1.6,2-3.3,2.1c-1.3,0.1-13,0-19.1,0v5.2c7.3,0,19.3,0,21.6-0.1
	c5.6-0.4,8.2-1.5,8.2-7.5C563.4,375.3,560.1,374.2,554.5,374.2z"/>
<path fill="#003D79" d="M509.5,383h16.7v6.1h-24.1v-24.2h7.4V383z"/>
</svg>
